<svg xmlns="http://www.w3.org/2000/svg" viewBox="0 0 1200 675" role="img" aria-labelledby="title desc">
  <title id="title">Ballon d'Or 2016</title>
  <desc id="desc">Stylized comparison chart for the 2016 Ballon d'Or discussion.</desc>
  <defs>
    <linearGradient id="bg" x1="0" y1="0" x2="1" y2="1">
      <stop offset="0%" stop-color="#08131a" />
      <stop offset="100%" stop-color="#0f2a1d" />
    </linearGradient>
    <linearGradient id="accent" x1="0" y1="0" x2="1" y2="0">
      <stop offset="0%" stop-color="#22c55e" />
      <stop offset="100%" stop-color="#f4c36b" />
    </linearGradient>
  </defs>
  <rect width="1200" height="675" rx="36" fill="url(#bg)" />
  <circle cx="1030" cy="115" r="145" fill="#22c55e" fill-opacity="0.08" />
  <circle cx="190" cy="535" r="210" fill="#f4c36b" fill-opacity="0.07" />
  <text x="72" y="118" fill="#f8fafc" font-family="Arial, Helvetica, sans-serif" font-size="58" font-weight="700">Ballon d'Or 2016</text>
  <text x="72" y="168" fill="#cbd5e1" font-family="Arial, Helvetica, sans-serif" font-size="28">Key talking points from the 2016 case</text>
  <rect x="72" y="232" width="1056" height="18" rx="9" fill="#1f2937" />
  <rect x="72" y="232" width="760" height="18" rx="9" fill="url(#accent)" />
  <g font-family="Arial, Helvetica, sans-serif" font-size="24" fill="#e2e8f0">
    <text x="72" y="296">European trophy run</text>
    <text x="72" y="346">Champions League peak</text>
    <text x="72" y="396">Narrative control</text>
    <text x="72" y="446">Award verdict</text>
  </g>
  <g>
    <rect x="412" y="268" width="620" height="28" rx="14" fill="#223047" />
    <rect x="412" y="268" width="590" height="28" rx="14" fill="#22c55e" />
    <rect x="412" y="318" width="620" height="28" rx="14" fill="#223047" />
    <rect x="412" y="318" width="470" height="28" rx="14" fill="#f4c36b" />
    <rect x="412" y="368" width="620" height="28" rx="14" fill="#223047" />
    <rect x="412" y="368" width="540" height="28" rx="14" fill="#22c55e" fill-opacity="0.78" />
    <rect x="412" y="418" width="620" height="28" rx="14" fill="#223047" />
    <rect x="412" y="418" width="610" height="28" rx="14" fill="#f4c36b" fill-opacity="0.76" />
  </g>
  <text x="72" y="586" fill="#94a3b8" font-family="Arial, Helvetica, sans-serif" font-size="22">Placeholder chart generated from the project assets so the page stays stable.</text>
  <text x="72" y="626" fill="#22c55e" font-family="Arial, Helvetica, sans-serif" font-size="20" font-weight="700">CRFraud visual asset</text>
</svg>
